<mxfile host="app.diagrams.net" modified="2022-09-09T05:16:24.496Z" agent="5.0 (iPhone; CPU iPhone OS 15_6_1 like Mac OS X) AppleWebKit/605.1.15 (KHTML, like Gecko) Version/15.6.1 Mobile/15E148 Safari/604.1" etag="eTDcIh-tIblc84nHxDPn" version="20.3.0" type="github">
  <diagram id="rf0-D7_Az6T8h0p0TIKu" name="Page-1">
    <mxGraphModel dx="394" dy="843" grid="0" gridSize="10" guides="1" tooltips="1" connect="1" arrows="1" fold="1" page="0" pageScale="1" pageWidth="850" pageHeight="1100" math="0" shadow="0">
      <root>
        <mxCell id="0" />
        <mxCell id="1" parent="0" />
        <mxCell id="XlX4D2EocLDezyg0ySma-2" value="Classname" style="swimlane;fontStyle=1;align=center;verticalAlign=top;childLayout=stackLayout;horizontal=1;startSize=26;horizontalStack=0;resizeParent=1;resizeParentMax=0;resizeLast=0;collapsible=1;marginBottom=0;hachureGap=4;" vertex="1" parent="1">
          <mxGeometry x="253" y="270" width="160" height="96" as="geometry" />
        </mxCell>
        <mxCell id="XlX4D2EocLDezyg0ySma-3" value="+ height: type&#xa;" style="text;strokeColor=none;fillColor=none;align=left;verticalAlign=top;spacingLeft=4;spacingRight=4;overflow=hidden;rotatable=0;points=[[0,0.5],[1,0.5]];portConstraint=eastwest;hachureGap=4;" vertex="1" parent="XlX4D2EocLDezyg0ySma-2">
          <mxGeometry y="26" width="160" height="36" as="geometry" />
        </mxCell>
        <mxCell id="XlX4D2EocLDezyg0ySma-4" value="" style="line;strokeWidth=1;fillColor=none;align=left;verticalAlign=middle;spacingTop=-1;spacingLeft=3;spacingRight=3;rotatable=0;labelPosition=right;points=[];portConstraint=eastwest;strokeColor=inherit;hachureGap=4;" vertex="1" parent="XlX4D2EocLDezyg0ySma-2">
          <mxGeometry y="62" width="160" height="8" as="geometry" />
        </mxCell>
        <mxCell id="XlX4D2EocLDezyg0ySma-5" value="+ method(type): type" style="text;strokeColor=none;fillColor=none;align=left;verticalAlign=top;spacingLeft=4;spacingRight=4;overflow=hidden;rotatable=0;points=[[0,0.5],[1,0.5]];portConstraint=eastwest;hachureGap=4;" vertex="1" parent="XlX4D2EocLDezyg0ySma-2">
          <mxGeometry y="70" width="160" height="26" as="geometry" />
        </mxCell>
      </root>
    </mxGraphModel>
  </diagram>
</mxfile>
